<svg width="700" height="834" viewBox="0 0 700 834" fill="none" xmlns="http://www.w3.org/2000/svg">
<path d="M135 188L695.25 97.0673V278.933L135 188Z" fill="#FFDF9B"/>
<path d="M68.8262 233.444V166.391C86.2104 119.206 219.075 117.964 240.184 155.216V222.269C197.966 211.093 117.253 211.093 68.8262 233.444Z" fill="black" stroke="black" stroke-width="2.48345"/>
<path d="M240.185 155.216C224.042 121.689 89.9359 116.016 68.8265 166.391C55.9126 157.451 57.6513 146.524 62.618 137.832C66.3432 126.656 124.704 105.547 135.88 89.4044V79.4705C132.982 72.0202 130.913 56.1261 145.813 52.1525L148.297 0L150.78 52.1525C160.714 54.636 165.681 64.5698 160.714 79.4705V89.4044C181.824 99.3382 222.069 116.064 231.493 119.206C242.668 122.931 263.032 138.328 240.185 155.216Z" fill="black"/>
<path d="M50.2001 302.981L51.4418 371.276C108.064 355.382 188.032 350.167 261.294 360.101V295.531C267.503 289.322 269.986 280.63 265.019 275.663C232.734 243.379 78.7601 249.587 47.7167 289.322C40.8792 298.074 46.8888 301.74 50.2001 302.981Z" fill="black"/>
<path d="M312.205 386.177C312.205 333.528 0.531371 345.2 3.01489 404.803C3.81058 423.899 24.1242 430.879 26.6076 432.121L34.058 435.846C36.5415 437.088 46.475 459.439 48.9585 473.098C98.6276 451.989 201.691 439.571 269.986 464.406C270.814 453.644 274.208 430.879 281.161 425.912C286.129 422.364 297.304 417.22 307.238 407.287C313.28 401.244 312.619 390.316 312.205 386.177Z" fill="black"/>
<path d="M7.98157 1538.5L46.4751 504.141C60.8339 484.996 93.6607 470.615 168.164 470.615C266.261 470.615 252.602 478.065 273.711 495.449L344.49 1538.5H7.98157Z" fill="black"/>
<path d="M40.2665 483.032C37.1138 493.541 43.3974 511.794 50.2002 504.141C60.1341 492.966 77.5182 474.34 163.197 473.098C206.658 473.098 250.118 470.614 271.228 495.449C274.557 499.366 282.403 494.207 277.436 474.34C269.428 442.304 149.215 439.841 93.6607 455.714C67.5843 463.164 43.9916 470.615 40.2665 483.032Z" fill="black"/>
<path d="M20.3988 382.452V343.959C68.8262 291.806 289.854 300.498 298.546 332.783V370.035C260.052 347.684 97.3859 343.959 20.3988 382.452Z" fill="black"/>
<path d="M48.9969 288.08L48.9969 245.862C82.4854 204.885 252.602 204.885 262.536 237.17L262.536 273.18C232.782 249.825 104.837 244.62 48.9969 288.08Z" fill="black"/>
</svg>
